<svg xmlns="http://www.w3.org/2000/svg" id="SvgjsSvg1006" opacity="1" width="600" height="600" version="1.1" xmlns:xlink="http://www.w3.org/1999/xlink" xmlns:svgjs="http://svgjs.com/svgjs">
  <defs id="SvgjsDefs1007" />
  <rect id="SvgjsRect1008" fill="#0000ff" transform="matrix(1 0 0 1 322 280)" width="0" height="0" />
  <rect id="SvgjsRect1009" fill="#000cf2" transform="matrix(0.796084 0.605186 -0.605186 0.796084 328.898 301.968)" width="9.2" height="9.2" />
  <rect id="SvgjsRect1010" fill="#0019e5" transform="matrix(0.267499 0.963558 -0.963558 0.267499 313.535 328.756)" width="18.4" height="18.4" />
  <rect id="SvgjsRect1011" fill="#0026d8" transform="matrix(-0.370181 0.92896 -0.92896 -0.370181 275.975 340.289)" width="27.6" height="27.6" />
  <rect id="SvgjsRect1012" fill="#0033cc" transform="matrix(-0.856889 0.515501 -0.515501 -0.856889 232.134 320.828)" width="36.8" height="36.8" />
  <rect id="SvgjsRect1013" fill="#003fbf" transform="matrix(-0.99413 -0.108195 0.108195 -0.99413 207.049 269.884)" width="46" height="46" />
  <rect id="SvgjsRect1014" fill="#004cb2" transform="matrix(-0.725932 -0.687766 0.687766 -0.725932 221.744 205.859)" width="55.2" height="55.2" />
  <rect id="SvgjsRect1015" fill="#0059a5" transform="matrix(-0.161676 -0.986844 0.986844 -0.161676 280.259 159.506)" width="64.4" height="64.4" />
  <rect id="SvgjsRect1016" fill="#006699" transform="matrix(0.468517 -0.883455 0.883455 0.468517 363.906 159.497)" width="73.6" height="73.6" />
  <rect id="SvgjsRect1017" fill="#00728c" transform="matrix(0.907633 -0.419764 0.419764 0.907633 436.78 216.742)" width="82.8" height="82.8" />
  <rect id="SvgjsRect1018" fill="#007f7f" transform="matrix(0.976588 0.21512 -0.21512 0.976588 461.137 315.495)" width="92" height="92" />
  <rect id="SvgjsRect1019" fill="#008c72" transform="matrix(0.647258 0.762271 -0.762271 0.647258 416.053 416.675)" width="101.2" height="101.2" />
  <rect id="SvgjsRect1020" fill="#009966" transform="matrix(0.0539554 0.998543 -0.998543 0.0539554 310.446 473.318)" width="110.4" height="110.4" />
  <rect id="SvgjsRect1021" fill="#00a559" transform="matrix(-0.561352 0.827577 -0.827577 -0.561352 183.295 452.053)" width="119.6" height="119.6" />
</svg>